
<!-- Uploaded to: SVG Repo, www.svgrepo.com, Generator: SVG Repo Mixer Tools -->
<svg height="30px" width="30px" version="1.1" id="Layer_1" xmlns="http://www.w3.org/2000/svg" xmlns:xlink="http://www.w3.org/1999/xlink" 
	 viewBox="0 0 511.999 511.999" xml:space="preserve">
<path style="fill:#FFD782;" d="M389.209,207.832H246.828L276.07,22.883c2.645-17.457-3.452-19.89-13.548-5.404L109.043,245.935
	c-10.096,14.486-3.911,26.34,13.747,26.34h119.174L207.86,489.118c-2.646,17.457,3.451,19.888,13.547,5.402L402.956,234.17
	C413.053,219.683,406.866,207.832,389.209,207.832z"/>
<path style="fill:#FFC36E;" d="M274.043,247.811c-40.455-5.008-64.443-1.499-102.177-1.513c-17.657,0-23.843-11.853-13.747-26.34
	L271.624,51.005l4.446-28.122c2.645-17.457-3.452-19.89-13.548-5.404L109.043,245.935c-10.096,14.486-3.911,26.34,13.747,26.34
	h119.174L207.86,489.118c-2.646,17.457,3.451,19.888,13.547,5.402l14.027-20.114c-1.117-1.412-2.235-2.989-3.353-4.79
	C232.08,469.615,285.65,249.248,274.043,247.811z"/>
<path d="M413.577,211.869c-2.345-4.493-8.629-12.03-24.367-12.03H256.184L283.972,24.08c0.726-4.79,2.934-19.365-6.938-23.302
	c-9.869-3.937-18.3,8.157-21.07,12.131c-0.026,0.038-0.052,0.075-0.077,0.113L102.445,241.424
	c-8.95,12.881-6.363,22.325-4.021,26.811c2.346,4.493,8.629,12.031,24.368,12.031h109.825L199.957,487.92
	c-0.726,4.789-2.934,19.364,6.937,23.301c1.353,0.539,2.676,0.777,3.964,0.777c8.11,0,14.717-9.479,17.107-12.908l181.55-260.353
	C418.512,225.828,415.921,216.363,413.577,211.869z M396.401,229.598L216.102,488.153l33.757-214.636
	c0.363-2.308-0.302-4.66-1.82-6.436c-1.519-1.776-3.739-2.799-6.076-2.799H122.791c-5.18,0-9.087-1.319-10.195-3.443
	c-1.109-2.123,0.043-6.083,3.005-10.333c0.026-0.038,0.052-0.075,0.078-0.113L267.81,23.94l-28.877,182.643
	c-0.365,2.31,0.299,4.663,1.817,6.44c1.519,1.777,3.74,2.802,6.077,2.802h142.381c6.193,0,9.327,1.778,10.195,3.442
	C400.273,220.93,399.94,224.519,396.401,229.598z M237.323,123.749l-8.659,51.051c-0.661,3.9-4.043,6.658-7.871,6.658
	c-0.444,0-0.894-0.037-1.347-0.114c-4.352-0.738-7.282-4.865-6.543-9.217l8.659-51.051c0.738-4.352,4.865-7.286,9.217-6.543
	C235.132,115.271,238.062,119.397,237.323,123.749z M333.55,291.451l-52.306,75.047c-1.554,2.229-4.038,3.423-6.564,3.423
	c-1.578,0-3.171-0.466-4.563-1.437c-3.622-2.524-4.511-7.506-1.987-11.127l52.306-75.047c2.524-3.622,7.506-4.512,11.127-1.987
	C335.186,282.848,336.075,287.831,333.55,291.451z M360.662,252.553L350,267.851c-1.554,2.229-4.038,3.423-6.564,3.423
	c-1.579,0-3.171-0.466-4.564-1.437c-3.621-2.524-4.511-7.506-1.986-11.127l10.663-15.299c2.524-3.622,7.506-4.513,11.127-1.987
	C362.297,243.949,363.186,248.931,360.662,252.553z"/>
</svg>
